PathFileType	4	(X/Y/Z)	C:\Users\WrightLab\Desktop\Jo\P4V119.trc
DataRate	CameraRate	NumFrames	NumMarkers	Units	OrigDataRate	OrigDataStartFrame	OrigNumFrames
100.00	100.00	       41	19	mm	100.00	175	       697
Frame#	Time	Headset_Front			Headset_Back			Headset_Left			Headset_Right			Left_Shoulder			Right_Shoulder			Sternum			C7			Left Elbow			Right Elbow			Left Wrist			Right Wrist			Left ASIS			Right ASIS			S2			Left Knee			Right Knee			Left Ankle			Right Ankle			
		X1	Y1	Z1	X2	Y2	Z2	X3	Y3	Z3	X4	Y4	Z4	X5	Y5	Z5	X6	Y6	Z6	X7	Y7	Z7	X8	Y8	Z8	X9	Y9	Z9	X10	Y10	Z10	X11	Y11	Z11	X12	Y12	Z12	X13	Y13	Z13	X14	Y14	Z14	X15	Y15	Z15	X16	Y16	Z16	X17	Y17	Z17	X18	Y18	Z18	X19	Y19	Z19	

175	1.740																									184.27510	1147.07373	-1519.88660				152.23500	847.37750	-1442.62708				47.67942	993.45892	-1432.64722							44.91894	505.78012	-1510.07361	-332.66861	539.90265	-1383.79272							
176	1.750																									183.05074	1148.66382	-1517.36292				150.48956	847.20099	-1440.62488				46.54066	993.17749	-1430.03674							42.50108	506.74951	-1505.51477	-336.32690	541.81830	-1380.72693							
177	1.760																									182.08617	1148.90784	-1511.83630				149.38318	847.68542	-1439.48340				43.90188	993.69580	-1423.32471							41.52829	506.94470	-1506.05164	-340.53384	543.57867	-1377.67981							
178	1.770																									180.34433	1149.50720	-1507.20447				148.16760	847.41248	-1436.63208				43.14915	992.98456	-1422.66711	-289.34464	1008.15790	-1455.17773				39.46808	506.40305	-1505.70129	-343.34879	544.79327	-1374.10559							
179	1.780																									178.50923	1150.10876	-1502.49109				146.63470	846.94336	-1433.21692				40.83804	991.71747	-1418.76343	-291.26257	1008.34717	-1455.31226				38.11956	505.12540	-1507.55579	-347.18204	546.21338	-1371.19312							
180	1.790																									177.26271	1150.36279	-1496.72998				144.38036	847.06323	-1430.05920				38.41148	990.15692	-1415.90283	-293.54663	1008.84308	-1453.77454				35.72577	504.78458	-1505.41394	-350.02658	546.98566	-1367.17749							
181	1.800																									175.01286	1148.79993	-1487.26306				142.58003	847.32538	-1426.91626	-417.86169	846.79248	-1466.48706	37.37744	988.91864	-1417.75208	-295.05200	1009.44775	-1451.33057				34.41700	504.05283	-1503.71118	-354.24973	548.20343	-1364.42920							
182	1.810																									172.96898	1149.85913	-1483.21399				140.44130	846.70056	-1421.95288	-420.21268	846.96729	-1464.20496	34.40895	988.63202	-1414.07178	-296.70615	1008.37146	-1446.83643				33.58760	503.11884	-1503.46350	-356.65076	549.22455	-1361.35120							
183	1.820																									170.80350	1150.91028	-1479.12158				137.71475	845.99121	-1416.50183	-422.90268	845.28650	-1466.03687	32.35940	987.72131	-1410.25769	-298.48080	1009.26123	-1442.13354				32.83338	502.70309	-1502.58594	-361.02707	550.63629	-1357.72144							
184	1.830																									167.90067	1151.72156	-1474.39392				134.88991	846.21832	-1412.31128	-425.04663	842.84229	-1470.28113	31.24597	986.38757	-1408.89404	-299.97250	1008.99829	-1438.39636				30.43876	504.46597	-1496.64380	-365.35065	551.51044	-1354.83191							
185	1.840																									166.43533	1149.62695	-1463.23596				131.37694	846.98578	-1408.27100	-427.97894	841.24817	-1465.80481	27.74655	986.46710	-1399.82642	-302.54422	1009.75684	-1434.74634				29.70804	503.87479	-1496.25964	-368.36246	551.69171	-1351.30676							
186	1.850																									163.04938	1150.04822	-1457.60181				128.06424	846.44006	-1401.77002	-429.23227	840.36780	-1467.99548	25.99887	986.10602	-1396.35315	-304.30182	1008.13019	-1435.97314				27.85942	504.18741	-1493.01160	-373.02509	552.76978	-1347.94409							
187	1.860																									160.50706	1151.06604	-1453.16675				124.96111	845.89832	-1394.35876	-432.37888	838.20270	-1470.50330	23.80678	986.05237	-1390.47095	-306.65002	1007.58179	-1436.16748				25.90685	504.21307	-1490.69678	-375.82437	552.67578	-1344.57837							
188	1.870																									156.96689	1150.18909	-1444.53625				121.51959	845.09674	-1390.63892	-434.60999	837.93127	-1470.48254	21.27529	986.45215	-1384.87549	-309.13608	1007.22412	-1431.68286				22.58523	504.98785	-1486.23376	-380.90909	553.73309	-1341.46582							
189	1.880																									154.40784	1150.05823	-1437.42773				117.82687	845.54498	-1379.73193	-437.93799	838.46234	-1463.49011	18.72248	984.88739	-1381.60608	-311.52783	1006.67719	-1426.58630				21.49829	503.43002	-1488.27368	-384.76950	553.55243	-1338.83911							
190	1.890																									150.97275	1149.39551	-1429.26184				113.24641	846.08612	-1373.30579	-439.59167	836.27563	-1463.65112	15.29336	983.64917	-1376.86743	-313.16330	1006.44080	-1422.34839				20.50537	501.98297	-1489.46289	-389.04428	554.09930	-1335.39404							
191	1.900																									147.90694	1148.52148	-1420.72534				108.80652	844.78754	-1363.67114	-442.73090	834.59802	-1465.35303	13.09869	981.62354	-1377.83081	-315.39996	1004.93634	-1417.58801				18.27490	501.71686	-1485.74023	-392.66736	553.62347	-1332.43213							
192	1.910																									144.07683	1149.31030	-1415.79504				103.52239	845.47388	-1357.15796	-445.50214	833.13562	-1464.86084	9.04432	981.18835	-1369.59424	-318.53668	1005.93909	-1413.66760				16.18347	501.63962	-1481.21301	-397.58789	554.03998	-1328.53906							
193	1.920																									140.50745	1147.61243	-1405.41980				98.64393	845.06158	-1347.40552	-448.30621	832.26245	-1459.87268	7.64244	979.55487	-1367.48767	-322.37512	1004.19012	-1412.22412				15.20946	500.50174	-1478.77563	-401.52527	553.99298	-1324.57275							
194	1.930																									136.46808	1148.35681	-1400.58472				94.18936	844.75787	-1338.14978	-450.34088	830.49677	-1457.85083	3.73373	978.42993	-1358.05225	-325.16785	1002.24048	-1409.70166				13.00147	501.50546	-1474.03833	-406.19797	554.02582	-1321.66919							
195	1.940																									133.10936	1145.99658	-1388.96118				90.34467	843.37036	-1329.14526	-453.32529	827.62744	-1459.10742	2.06184	977.60223	-1354.65344	-327.03296	1001.68469	-1405.23987				10.44987	503.07074	-1469.86670	-410.67770	553.66376	-1317.08472							
196	1.950																									128.75482	1146.32922	-1383.17224				83.91403	844.55829	-1319.28296	-455.94144	825.92499	-1460.42761	-2.26467	976.80261	-1348.51990	-330.73248	1001.56049	-1397.34241				8.49579	501.06180	-1470.36353	-414.47079	553.43359	-1313.06213							
197	1.960																									124.69863	1144.57190	-1372.78259				78.34629	843.66290	-1308.61304	-459.58392	825.32214	-1452.96460	-6.99648	975.13037	-1343.80103	-333.21124	999.50439	-1399.04736				4.70650	500.08905	-1465.61914	-419.42545	553.07422	-1308.45947							
198	1.970																									120.32548	1144.94519	-1367.05811				72.69669	843.23254	-1297.76648	-461.76160	822.20996	-1451.25818	-10.89615	974.15558	-1339.58752	-338.38531	998.52454	-1394.22095				2.87572	498.54401	-1466.13525	-424.35760	552.82330	-1303.66663							
199	1.980																									116.52859	1142.57178	-1355.31628				66.68678	843.15729	-1286.94812	-466.13480	821.03540	-1447.85681	-14.55720	974.15375	-1330.44543	-341.18256	997.29565	-1387.24329				0.89746	498.02875	-1463.07336	-428.50812	553.25409	-1298.85266							
200	1.990																									111.47831	1142.07153	-1347.60388				60.36436	842.77161	-1275.54822	-469.47708	818.00623	-1447.99573	-18.34422	971.97406	-1321.85925	-345.07855	997.13312	-1379.78687				-1.86813	498.78732	-1455.12524	-433.63174	552.67090	-1293.64880							
201	2.000																									106.76266	1140.96631	-1338.49597				53.81600	842.38251	-1264.68787	-473.22116	816.81464	-1439.44543	-21.47317	969.85907	-1322.36035	-349.43234	994.66711	-1380.09253				-3.66824	497.54239	-1452.11829	-438.97147	552.64648	-1288.46643							
202	2.010																									102.27914	1139.26379	-1327.82800				47.61881	842.42493	-1253.69897	-477.10812	814.99835	-1434.55273	-27.47067	970.17450	-1307.62756	-352.85062	991.44891	-1377.54236				-6.87887	497.36963	-1446.84839	-444.39224	552.04816	-1283.08948							
203	2.020																									97.18156	1139.43787	-1321.34863				41.53136	842.19263	-1241.46497	-481.53812	810.54169	-1435.99255	-32.11390	967.66431	-1300.17407	-356.53717	991.02325	-1370.57568				-10.81981	496.90131	-1442.87085	-449.99637	551.78784	-1277.58179							
204	2.030																									92.36544	1138.11890	-1311.23999				34.97828	841.55389	-1229.43652	-484.93604	810.09686	-1429.89038	-37.12888	966.36267	-1295.25354	-362.11710	989.48871	-1368.26135				-15.05867	496.75085	-1439.36853	-455.21729	551.22260	-1272.46960							
205	2.040																									87.63414	1136.40833	-1300.19214				27.65769	841.95215	-1218.83203	-489.79242	808.99927	-1421.58911	-42.75189	965.87201	-1287.43054	-367.05685	988.23358	-1360.15430				-17.08322	495.72913	-1436.75671	-461.50159	551.01636	-1266.28882							
206	2.050																									81.95830	1136.21069	-1292.23450				21.04238	842.36255	-1207.10095	-495.70438	806.76428	-1418.49292	-46.91764	963.42096	-1289.00378	-370.71463	987.39459	-1355.67957				-20.48784	494.00461	-1430.41370	-466.58951	550.18317	-1260.62891							
207	2.060																									76.41108	1135.20190	-1282.28870				14.14771	841.89923	-1194.32764	-499.24380	805.02844	-1412.97864	-51.66576	962.32361	-1282.03564	-377.21265	984.98975	-1354.17175				-24.91405	494.99509	-1421.61060	-472.98621	549.79425	-1254.45801							
208	2.070																									70.54848	1133.92200	-1272.11780				6.38787	841.99884	-1179.92981	-505.16238	802.00842	-1408.51331	-57.12297	958.89935	-1283.16125	-381.52527	984.52136	-1344.58301				-29.23641	493.64801	-1420.94983	-478.36136	548.84351	-1248.34436							
209	2.080																									64.52583	1133.41895	-1262.34790				-0.85233	841.73859	-1168.98108	-510.81546	803.22675	-1400.98535	-63.09661	960.57971	-1268.45508	-387.09906	983.81128	-1336.74170				-33.30495	493.07236	-1416.08911	-484.93604	548.12897	-1242.23499							
210	2.090																									58.66623	1132.37549	-1251.96790				-8.36054	842.05676	-1157.84790	-516.11639	799.86078	-1394.13257	-69.51868	957.92908	-1266.19141	-393.02017	982.88855	-1330.32837				-37.05448	493.37189	-1408.70667	-490.82285	546.23938	-1235.14026							
211	2.100																									52.05173	1131.90369	-1243.01917				-15.79918	842.23676	-1145.53687	-521.93579	797.95667	-1392.51135	-76.73318	957.71033	-1254.39709	-399.27737	980.62451	-1324.70996				-39.62802	492.72675	-1402.95557	-497.08820	545.76453	-1229.47925							
212	2.110																									45.55488	1131.26758	-1233.13879				-23.12210	842.87048	-1133.91479	-527.54901	798.65375	-1380.81531	-82.88789	957.49756	-1250.98096	-405.41635	979.29260	-1318.55127				-44.49079	494.78964	-1395.91309	-502.46115	544.29443	-1222.96924							
213	2.120																									38.82698	1130.06763	-1221.41626				-30.76117	843.16608	-1121.58850	-534.53442	797.59760	-1373.45520	-90.19371	956.46918	-1240.63953	-412.13898	978.51593	-1312.19055				-48.73503	494.03427	-1392.69592	-508.72668	543.04767	-1216.17822							
214	2.130																									32.02434	1130.80481	-1214.17322				-38.71970	843.45935	-1109.45203	-540.57050	797.18585	-1366.08191	-96.66405	954.66095	-1237.15527	-418.96225	978.11267	-1304.87561				-51.77209	491.20767	-1390.54871	-513.61145	540.88550	-1210.46301							
215	2.140																									25.24300	1130.22192	-1203.35388				-45.82275	844.72357	-1097.42444	-547.60834	796.57379	-1359.34265	-104.77379	956.33807	-1224.15918	-426.78668	977.60394	-1298.55310				-56.65967	494.71185	-1377.26685	-518.92493	539.06012	-1204.56409							
